<svg width="869" height="158" viewBox="0 0 869 158" fill="none" xmlns="http://www.w3.org/2000/svg">
<g clip-path="url(#clip0_2_57)">
<path d="M235.776 40.5788V68.9721H273.905V86.9828H235.776V117H278.773V135.496H213.06V22.0814H278.773V40.5788H235.776Z" fill="white"/>
<path d="M336.858 114.565L359.574 45.6094H383.749L350.488 135.496H322.905L289.806 45.6094H314.142L336.858 114.565Z" fill="white"/>
<mask id="mask0_2_57" style="mask-type:luminance" maskUnits="userSpaceOnUse" x="-297" y="-620" width="1440" height="1440">
<path d="M-297 -620H1143V820H-297V-620Z" fill="white"/>
</mask>
<g mask="url(#mask0_2_57)">
<path d="M448.082 114.161C451.706 112.161 454.599 109.158 456.763 105.154C458.924 101.155 460.008 96.2873 460.008 90.5513C460.008 82.0087 457.76 75.438 453.274 70.8393C448.784 66.242 443.296 63.9447 436.807 63.9447C430.316 63.9447 424.879 66.242 420.499 70.8393C416.119 75.438 413.927 82.0087 413.927 90.5513C413.927 99.0993 416.062 105.67 420.338 110.267C424.61 114.865 429.992 117.161 436.482 117.161C440.591 117.161 444.456 116.163 448.082 114.161ZM413.118 131.195C406.194 127.358 400.759 121.923 396.811 114.89C392.86 107.859 390.89 99.7487 390.89 90.5513C390.89 81.3607 392.916 73.2487 396.972 66.2153C401.03 59.1847 406.571 53.7487 413.604 49.9073C420.634 46.07 428.476 44.15 437.13 44.15C445.783 44.15 453.624 46.07 460.656 49.9073C467.687 53.7487 473.232 59.1847 477.287 66.2153C481.344 73.2487 483.372 81.3607 483.372 90.5513C483.372 99.7487 481.288 107.859 477.126 114.89C472.962 121.923 467.335 127.358 460.252 131.195C453.164 135.038 445.243 136.955 436.482 136.955C427.826 136.955 420.038 135.038 413.118 131.195Z" fill="white"/>
<path d="M522.798 117.486H560.117V135.497H500.082V22.2451H522.798V117.486Z" fill="white"/>
<path d="M636.21 76.3559C634.046 72.4079 631.125 69.3799 627.449 67.2706C623.772 65.1613 619.824 64.1053 615.606 64.1053C611.388 64.1053 607.493 65.1359 603.922 67.1879C600.353 69.2453 597.458 72.2466 595.244 76.1946C593.025 80.1426 591.916 84.8213 591.916 90.2293C591.916 95.6386 593.025 100.369 595.244 104.425C597.458 108.483 600.378 111.592 604.004 113.755C607.628 115.92 611.492 117 615.606 117C619.824 117 623.772 115.945 627.449 113.836C631.125 111.727 634.046 108.7 636.21 104.751C638.374 100.804 639.457 96.0693 639.457 90.5519C639.457 85.0373 638.374 80.3066 636.21 76.3559ZM574.15 66.0519C577.772 59.0226 582.693 53.6146 588.914 49.8279C595.134 46.0439 602.084 44.1493 609.765 44.1493C616.47 44.1493 622.34 45.5026 627.368 48.2053C632.398 50.9106 636.426 54.3173 639.457 58.4279V45.6093H662.333V135.497H639.457V122.353C636.536 126.572 632.505 130.061 627.368 132.819C622.23 135.579 616.306 136.956 609.602 136.956C602.029 136.956 595.134 135.011 588.914 131.116C582.693 127.223 577.772 121.733 574.15 114.648C570.525 107.564 568.713 99.4239 568.713 90.2293C568.713 81.1426 570.525 73.0853 574.15 66.0519Z" fill="white"/>
<path d="M751.489 76.1944C749.27 72.2464 746.352 69.2451 742.728 67.1877C739.102 65.1357 735.184 64.1064 730.965 64.1064C726.853 64.1064 722.986 65.1611 719.362 67.2704C715.74 69.3797 712.818 72.4371 710.602 76.4371C708.384 80.4411 707.276 85.1464 707.276 90.5517C707.276 95.9637 708.384 100.668 710.602 104.668C712.818 108.67 715.74 111.726 719.362 113.836C722.986 115.945 726.853 117 730.965 117C735.184 117 739.102 115.92 742.728 113.754C746.352 111.592 749.27 108.509 751.489 104.506C753.705 100.506 754.814 95.7464 754.814 90.2291C754.814 84.8211 753.705 80.1424 751.489 76.1944ZM719.362 48.2051C724.5 45.5024 730.369 44.1491 736.968 44.1491C744.646 44.1491 751.596 46.0437 757.817 49.8277C764.037 53.6157 768.956 58.9957 772.581 65.9717C776.205 72.9491 778.017 81.0358 778.017 90.2291C778.017 99.4238 776.205 107.564 772.581 114.648C768.956 121.733 764.037 127.222 757.817 131.116C751.596 135.01 744.646 136.956 736.968 136.956C730.26 136.956 724.393 135.63 719.362 132.982C714.334 130.332 710.302 126.897 707.276 122.678V135.497H684.561V15.4304H707.276V58.7504C710.197 54.4264 714.225 50.9104 719.362 48.2051Z" fill="white"/>
<path d="M809.168 132.982C803.327 130.332 798.703 126.736 795.295 122.192C791.888 117.648 790.022 112.62 789.699 107.102H812.576C813.006 110.565 814.711 113.43 817.686 115.702C820.662 117.973 824.364 119.109 828.802 119.109C833.126 119.109 836.507 118.245 838.942 116.513C841.375 114.784 842.592 112.565 842.592 109.86C842.592 106.941 841.104 104.75 838.131 103.29C835.154 101.829 830.423 100.236 823.932 98.5037C817.224 96.8797 811.738 95.2051 807.466 93.4731C803.19 91.7451 799.514 89.0931 796.432 85.5237C793.35 81.9531 791.808 77.1424 791.808 71.0824C791.808 66.1077 793.24 61.5651 796.107 57.4517C798.971 53.3451 803.083 50.0984 808.439 47.7184C813.792 45.3411 820.094 44.1491 827.34 44.1491C838.048 44.1491 846.594 46.8251 852.976 52.1811C859.358 57.5344 862.874 64.7544 863.522 73.8411H841.782C841.456 70.2704 839.967 67.4317 837.319 65.3224C834.667 63.2131 831.124 62.1584 826.692 62.1584C822.58 62.1584 819.416 62.9171 817.199 64.4304C814.98 65.9464 813.874 68.0557 813.874 70.7571C813.874 73.7877 815.388 76.0878 818.418 77.6544C821.443 79.2224 826.148 80.8184 832.532 82.4411C839.022 84.0624 844.378 85.7411 848.596 87.4691C852.815 89.2011 856.466 91.8797 859.548 95.5011C862.631 99.1264 864.224 103.913 864.334 109.86C864.334 115.052 862.899 119.705 860.035 123.814C857.166 127.926 853.059 131.144 847.703 133.469C842.35 135.792 836.103 136.956 828.963 136.956C821.606 136.956 815.01 135.63 809.168 132.982Z" fill="white"/>
<mask id="mask1_2_57" style="mask-type:luminance" maskUnits="userSpaceOnUse" x="30" y="4" width="93" height="150">
<path d="M30.756 4.28403H122.844V153.619H30.756V4.28403Z" fill="white"/>
</mask>
<g mask="url(#mask1_2_57)">
<g opacity="0.470001">
<path d="M34.376 150C29.5507 145.173 29.5507 137.348 34.376 132.521L87.9466 78.952L34.376 25.3814C29.5507 20.556 29.5507 12.7307 34.376 7.904C39.2027 3.07733 47.028 3.07733 51.8533 7.904L122.844 78.8947L122.788 78.952L122.844 79.0094L51.8533 150C47.028 154.825 39.2027 154.825 34.376 150Z" fill="url(#paint0_linear_2_57)"/>
</g>
</g>
</g>
<path d="M0.0266724 79.3907C0.0266724 87.6347 6.70934 94.3173 14.952 94.3173C23.196 94.3173 29.8787 87.6347 29.8787 79.3907C29.8787 71.1467 23.196 64.464 14.952 64.464C6.70934 64.464 0.0266724 71.1467 0.0266724 79.3907Z" fill="url(#paint1_linear_2_57)"/>
<path d="M30.7387 4.24002C24.9107 10.0694 24.9107 19.5214 30.7387 25.3494C36.5693 31.1774 46.0187 31.1774 51.848 25.3494C57.6773 19.5214 57.6773 10.0694 51.848 4.24002C48.9333 1.32536 45.1133 -0.130662 41.2933 -0.130662C37.4733 -0.130662 33.6533 1.32536 30.7387 4.24002Z" fill="url(#paint2_linear_2_57)"/>
<path d="M30.7053 132.639C24.8774 138.467 24.8774 147.919 30.7053 153.747C36.5347 159.576 45.9853 159.576 51.8147 153.747C57.6427 147.919 57.6427 138.467 51.8147 132.639C48.9 129.724 45.08 128.267 41.26 128.267C37.44 128.267 33.62 129.724 30.7053 132.639Z" fill="url(#paint3_linear_2_57)"/>
<path d="M48.6133 78.3307C48.6133 113.768 77.4427 142.597 112.88 142.597C148.317 142.597 177.148 113.768 177.148 78.3307C177.148 42.8933 148.317 14.064 112.88 14.064C77.4427 14.064 48.6133 42.8933 48.6133 78.3307ZM68.0146 78.3307C68.0146 53.592 88.1413 33.4654 112.88 33.4654C137.619 33.4654 157.745 53.592 157.745 78.3307C157.745 103.069 137.619 123.196 112.88 123.196C88.1413 123.196 68.0146 103.069 68.0146 78.3307Z" fill="url(#paint4_linear_2_57)"/>
</g>
<defs>
<linearGradient id="paint0_linear_2_57" x1="-12.4145" y1="183.045" x2="144.975" y2="-58.7427" gradientUnits="userSpaceOnUse">
<stop stop-color="#19CBFA"/>
<stop offset="1" stop-color="#A826FB"/>
</linearGradient>
<linearGradient id="paint1_linear_2_57" x1="-41.4915" y1="166.101" x2="115.898" y2="-75.686" gradientUnits="userSpaceOnUse">
<stop stop-color="#19CBFA"/>
<stop offset="1" stop-color="#A826FB"/>
</linearGradient>
<linearGradient id="paint2_linear_2_57" x1="-52.1155" y1="158.294" x2="105.275" y2="-83.4937" gradientUnits="userSpaceOnUse">
<stop stop-color="#19CBFA"/>
<stop offset="1" stop-color="#A826FB"/>
</linearGradient>
<linearGradient id="paint3_linear_2_57" x1="7.26179" y1="195.422" x2="164.652" y2="-46.365" gradientUnits="userSpaceOnUse">
<stop stop-color="#19CBFA"/>
<stop offset="1" stop-color="#A826FB"/>
</linearGradient>
<linearGradient id="paint4_linear_2_57" x1="27.7138" y1="209.166" x2="185.104" y2="-32.6215" gradientUnits="userSpaceOnUse">
<stop stop-color="#19CBFA"/>
<stop offset="1" stop-color="#A826FB"/>
</linearGradient>
<clipPath id="clip0_2_57">
<rect width="869" height="158" fill="white"/>
</clipPath>
</defs>
</svg>
