<?xml version="1.0" encoding="utf-8"?>
<!-- Generator: Adobe Illustrator 25.4.1, SVG Export Plug-In . SVG Version: 6.00 Build 0)  -->
<svg version="1.1" id="Layer_1" xmlns="http://www.w3.org/2000/svg" xmlns:xlink="http://www.w3.org/1999/xlink" x="0px" y="0px"
	 viewBox="0 0 448 400.3" style="enable-background:new 0 0 448 400.3;" xml:space="preserve">
<style type="text/css">
	.st0{opacity:0.47;fill:url(#SVGID_1_);}
	.st1{fill:url(#SVGID_00000161630148049194328730000010503129247818626981_);}
	.st2{fill:url(#SVGID_00000039104947659731084310000002500104890010002840_);}
	.st3{fill:url(#SVGID_00000039123973035152807400000016080941109055849104_);}
	.st4{fill:url(#SVGID_00000055674493322675524590000018081867758997605793_);}
</style>
<g>
	
		<linearGradient id="SVGID_1_" gradientUnits="userSpaceOnUse" x1="-589.2041" y1="178.2519" x2="22.3594" y2="576.3451" gradientTransform="matrix(0 -1 1 0 -209.719 -125.8896)">
		<stop  offset="0" style="stop-color:#19CBFA"/>
		<stop  offset="1" style="stop-color:#A826FB"/>
	</linearGradient>
	<path class="st0" d="M86.9,379.7L86.9,379.7c-12.2-12.2-12.2-32,0-44.2L222.4,200L86.9,64.5c-12.2-12.2-12.2-32,0-44.2l0,0
		c12.2-12.2,32-12.2,44.2,0l179.6,179.6l-0.1,0.1l0.1,0.1L131.1,379.7C118.9,391.9,99.1,391.9,86.9,379.7z"/>
	<g>
		
			<linearGradient id="SVGID_00000103235376199684920700000012224930630409647273_" gradientUnits="userSpaceOnUse" x1="-546.3487" y1="104.7061" x2="65.2148" y2="502.7993" gradientTransform="matrix(0 -1 1 0 -209.719 -125.8896)">
			<stop  offset="0" style="stop-color:#19CBFA"/>
			<stop  offset="1" style="stop-color:#A826FB"/>
		</linearGradient>
		<circle style="fill:url(#SVGID_00000103235376199684920700000012224930630409647273_);" cx="37.8" cy="201.1" r="37.8"/>
		
			<linearGradient id="SVGID_00000169540606557599994000000018113261768305656966_" gradientUnits="userSpaceOnUse" x1="-526.5999" y1="77.8344" x2="84.9637" y2="475.9276" gradientTransform="matrix(0 -1 1 0 -209.719 -125.8896)">
			<stop  offset="0" style="stop-color:#19CBFA"/>
			<stop  offset="1" style="stop-color:#A826FB"/>
		</linearGradient>
		<circle style="fill:url(#SVGID_00000169540606557599994000000018113261768305656966_);" cx="104.4" cy="37.8" r="37.8"/>
		
			<linearGradient id="SVGID_00000082345868590693969550000012387361595114022065_" gradientUnits="userSpaceOnUse" x1="-620.5114" y1="228.02" x2="-8.9478" y2="626.1132" gradientTransform="matrix(0 -1 1 0 -209.719 -125.8896)">
			<stop  offset="0" style="stop-color:#19CBFA"/>
			<stop  offset="1" style="stop-color:#A826FB"/>
		</linearGradient>
		<circle style="fill:url(#SVGID_00000082345868590693969550000012387361595114022065_);" cx="104.3" cy="362.5" r="37.8"/>
	</g>
	<g>
		
			<linearGradient id="SVGID_00000040574829945243854710000005269583532907576712_" gradientUnits="userSpaceOnUse" x1="-655.2737" y1="279.7502" x2="-43.7102" y2="677.8434" gradientTransform="matrix(0 -1 1 0 -209.719 -125.8896)">
			<stop  offset="0" style="stop-color:#19CBFA"/>
			<stop  offset="1" style="stop-color:#A826FB"/>
		</linearGradient>
		<path style="fill:url(#SVGID_00000040574829945243854710000005269583532907576712_);" d="M448,198.5
			c0,89.6-72.9,162.6-162.6,162.6s-162.6-72.9-162.6-162.6S195.8,35.9,285.4,35.9S448,108.8,448,198.5z M172,198.5
			c0,62.6,50.9,113.5,113.5,113.5S398.9,261,398.9,198.5S348,85,285.4,85S172,135.9,172,198.5z"/>
	</g>
</g>
</svg>
